<svg id="Expanded" xmlns="http://www.w3.org/2000/svg" viewBox="0 0 50 50"><defs><style>.cls-1{fill:#cb6130;}.cls-2{fill:#fca36f;}.cls-3{fill:#68ace8;}.cls-4{fill:#11b0a5;}.cls-5{fill:#7e2e24;}.cls-6{fill:#ff8880;}.cls-7{fill:#fff;}</style></defs><title>Gusto Illo Main-01</title><path class="cls-1" d="M27.92,35.26a1.81,1.81,0,0,0-1.18-1.71,1.83,1.83,0,0,0-1.55.13l-7,4.06,4.1-2.38a2,2,0,0,0-.26-3.6H21.93a2,2,0,0,0-1.64.13h0l-3,1.73A2.1,2.1,0,0,0,15.15,30l-2.57,1.49a1.88,1.88,0,0,0,.73-2.5,1.82,1.82,0,0,0-1-.89,1.87,1.87,0,0,0-1.61.13L35,14.21l7.81,13.52L27,36.83A1.79,1.79,0,0,0,27.92,35.26Z"/><path class="cls-2" d="M40.08,31.2l0,0,0,0a1.66,1.66,0,0,1-1,.33,1.64,1.64,0,0,1-.82-0.22l-1.79-1a2.17,2.17,0,1,1-2.18,3.76l-1.43-.82a2.14,2.14,0,0,1,.28,3.5l0,0,0,0a2.15,2.15,0,0,1-2.37.15l-1.09-.63a1.85,1.85,0,1,1-1.84,3.2h0l-6.35-3.66L7.25,27.73l0,0,7.79-13.49,16.52,9.54,1.29,0.75,2.07,1.19,5,2.87h0A1.65,1.65,0,0,1,40.08,31.2Z"/><polygon class="cls-3" points="15.06 14.21 7.27 27.7 0 23.5 7.81 9.98 15.06 14.21"/><polygon class="cls-3" points="34.94 14.21 42.73 27.7 50 23.5 42.19 9.98 34.94 14.21"/><rect class="cls-4" x="32.54" y="24.53" width="1" height="7.74" transform="translate(-8.08 42.81) rotate(-59.99)"/><polygon class="cls-4" points="32.78 33.77 32.65 33.77 27.46 30.77 27.96 29.91 32.92 32.77 33.28 32.77 33.29 33.28 32.29 33.28 32.79 33.28 32.78 33.77"/><rect class="cls-1" x="32.42" y="24.53" width="1.25" height="7.74" transform="translate(-8.08 42.81) rotate(-59.99)"/><polygon class="cls-1" points="32.78 33.9 32.62 33.9 27.4 30.88 28.02 29.8 32.95 32.65 33.41 32.65 33.41 33.28 32.16 33.28 32.79 33.28 32.78 33.9"/><rect class="cls-1" x="27.29" y="33.49" width="1.25" height="3.8" transform="matrix(0.5, -0.87, 0.87, 0.5, -16.7, 41.85)"/><path class="cls-1" d="M22.26,35.36L18.6,37.47a0.76,0.76,0,0,1-.85-0.06l-2.11-1.67a0.76,0.76,0,0,1,.09-1.25l1.51-.87h0l3-1.73h0a2,2,0,0,1,1.64-.13H22A2,2,0,0,1,22.26,35.36Z"/><path class="cls-1" d="M13.52,29.84a1.86,1.86,0,0,1-.94,1.63l-0.64.37a1.18,1.18,0,0,1-1.32-.1L9.43,30.8a1.18,1.18,0,0,1,.14-1.94l0.79-.46,0.27-.15a2,2,0,0,1,1.67-.17,1.82,1.82,0,0,1,1,.89A1.86,1.86,0,0,1,13.52,29.84Z"/><path class="cls-1" d="M27.92,35.26A1.79,1.79,0,0,1,27,36.83l-5.36,3.1a0.71,0.71,0,0,1-.8-0.06L19,38.38a0.71,0.71,0,0,1,.09-1.17l6.13-3.54a1.83,1.83,0,0,1,1.55-.13A1.81,1.81,0,0,1,27.92,35.26Z"/><path class="cls-1" d="M18.3,31.81a2.08,2.08,0,0,1-1,1.8h0l-1.86,1.07a1.05,1.05,0,0,1-1.18-.09l-1.76-1.4a1.05,1.05,0,0,1,.13-1.73h0L15.15,30A2.1,2.1,0,0,1,18.3,31.81Z"/><rect class="cls-5" x="17.84" y="36.05" width="4.74" height="1" transform="translate(-15.57 15.02) rotate(-30.02)"/><rect class="cls-5" x="14.58" y="33.83" width="2.89" height="1" transform="translate(-15.02 12.62) rotate(-30.02)"/><rect class="cls-5" x="11.11" y="31.25" width="1.99" height="1" transform="translate(-14.26 10.32) rotate(-30.02)"/><path class="cls-1" d="M21.24,20H31.47a0,0,0,0,1,0,0v3.89a0,0,0,0,1,0,0H21.24a1.9,1.9,0,0,1-1.9-1.9V21.93A1.9,1.9,0,0,1,21.24,20Z" transform="translate(-7.58 15.64) rotate(-30)"/><path class="cls-6" d="M29.47,10.54l-0.27.25h0A43,43,0,0,1,25,14a43,43,0,0,1-4.19-3.19h0l-0.27-.25a3.45,3.45,0,0,1-.34-4.85C21.42,4.46,23.57,5.61,25,7c1.43-1.4,3.58-2.55,4.81-1.31A3.45,3.45,0,0,1,29.47,10.54Z"/><circle class="cls-7" cx="8.57" cy="13.17" r="1.04"/><circle class="cls-7" cx="41.43" cy="13.17" r="1.04"/></svg>